<?xml version="1.0" encoding="UTF-8"?>
<!DOCTYPE svg PUBLIC "-//W3C//DTD SVG 1.1//EN" "http://www.w3.org/Graphics/SVG/1.1/DTD/svg11.dtd">
<!-- Creator: CorelDRAW 2018 (64 Bit Versão de avaliação) -->
<svg xmlns="http://www.w3.org/2000/svg" xml:space="preserve" width="19.9042mm" height="17.8058mm" version="1.1" style="shape-rendering:geometricPrecision; text-rendering:geometricPrecision; image-rendering:optimizeQuality; fill-rule:evenodd; clip-rule:evenodd"
viewBox="0 0 1980.47 1771.68"
 xmlns:xlink="http://www.w3.org/1999/xlink">
 <defs>
  <style type="text/css">
   <![CDATA[
    .str0 {stroke:#373435;stroke-width:19.9;stroke-miterlimit:22.9256}
    .fil0 {fill:black}
    .fil2 {fill:black;fill-rule:nonzero}
    .fil3 {fill:#F57011;fill-rule:nonzero}
    .fil1 {fill:#F57011;fill-rule:nonzero}
    .fil4 {fill:white;fill-rule:nonzero}
   ]]>
  </style>
 </defs>
 <g id="Camada_x0020_1">
  <metadata id="CorelCorpID_0Corel-Layer"/>
  <g id="_1771258630448">
   <polygon class="fil0 str0" points="9.95,9.95 1248.1,9.95 1248.1,1761.73 9.95,1761.73 "/>
   <path class="fil1" d="M140.69 127.46l142.31 0c79.26,0 133.05,3.31 161.18,9.77 42.53,9.59 76.94,30.28 103.42,62.22 26.65,31.77 39.88,70.99 39.88,117.49 0,38.73 -9.09,72.81 -27.46,102.1 -18.21,29.46 -44.36,51.63 -78.45,66.69 -33.92,15.05 -80.91,22.67 -140.82,22.99l256.66 331.62 -87.54 0 -256.65 -331.62 -41.04 0 0 331.62 -71.48 0 0 -712.89zm71.48 69.5l0 242.26 123.12 1c47.82,0 83.06,-4.47 105.91,-13.57 22.84,-9.09 40.71,-23.49 53.61,-43.35 12.75,-19.86 19.19,-42.03 19.19,-66.68 0,-23.83 -6.45,-45.67 -19.52,-65.2 -12.92,-19.52 -29.96,-33.42 -51.13,-41.87 -21.01,-8.44 -56.1,-12.58 -105.08,-12.58l-126.1 0z"/>
   <polygon class="fil1" points="669.06,127.46 1077.13,127.46 1077.13,196.96 740.54,196.96 740.54,420.36 1074.15,420.36 1074.15,489.86 740.54,489.86 740.54,770.85 1074.15,770.85 1074.15,840.35 669.06,840.35 "/>
   <path class="fil2" d="M1356.43 959.89l90.42 -52.69c63.74,114 137.36,170.99 220.86,170.99 35.82,0 69.42,-8.14 100.8,-24.19 31.37,-16.05 55.33,-37.84 71.64,-64.9 16.56,-27.06 24.71,-55.8 24.71,-86.22 0,-34.49 -12.11,-68.25 -36.32,-101.54 -33.35,-45.74 -94.13,-101.06 -182.81,-165.49 -88.94,-65.14 -144.29,-112.08 -166.03,-141.05 -37.79,-48.62 -56.57,-101.31 -56.57,-157.83 0,-44.78 11.11,-85.74 33.34,-122.61 22.24,-36.88 53.61,-65.86 94.13,-87.18 40.52,-21.31 84.25,-31.85 131.68,-31.85 50.4,0 97.59,11.98 141.31,36.17 43.73,23.95 90.18,68.25 139.09,132.67l-86.96 63.94c-40.27,-51.48 -74.61,-85.49 -103.01,-101.78 -28.42,-16.53 -59.29,-24.67 -92.64,-24.67 -43.23,0 -78.57,12.7 -105.99,37.84 -27.42,25.38 -41.25,56.28 -41.25,93.4 0,22.27 4.94,44.07 14.58,65.14 9.63,21.07 27.42,43.82 53.11,68.72 13.83,12.94 60.03,47.42 138.1,102.98 92.4,66.1 155.89,124.77 190.23,176.03 34.34,51.49 51.63,103.22 51.63,155.19 0,74.71 -29.4,139.86 -87.95,194.94 -58.8,55.32 -130.2,82.86 -214.19,82.86 -64.72,0 -123.53,-16.77 -176.15,-50.3 -52.63,-33.52 -101.29,-89.8 -145.76,-168.59z"/>
   <path class="fil3" d="M1267.36 1490.95l90.43 -52.69c63.74,114 137.36,170.99 220.86,170.99 35.82,0 69.42,-8.14 100.79,-24.19 31.37,-16.04 55.34,-37.83 71.65,-64.89 16.55,-27.06 24.7,-55.8 24.7,-86.22 0,-34.49 -12.1,-68.26 -36.31,-101.54 -33.35,-45.75 -94.13,-101.07 -182.82,-165.49 -88.93,-65.14 -144.28,-112.09 -166.02,-141.06 -37.8,-48.62 -56.58,-101.3 -56.58,-157.83 0,-44.78 11.11,-85.73 33.35,-122.61 22.24,-36.88 53.61,-65.86 94.13,-87.17 40.52,-21.31 84.25,-31.85 131.68,-31.85 50.4,0 97.58,11.97 141.31,36.16 43.73,23.95 90.18,68.26 139.09,132.67l-86.96 63.95c-40.27,-51.49 -74.61,-85.5 -103.02,-101.78 -28.41,-16.53 -59.29,-24.68 -92.64,-24.68 -43.23,0 -78.56,12.7 -105.98,37.84 -27.42,25.39 -41.26,56.29 -41.26,93.4 0,22.28 4.95,44.07 14.58,65.14 9.64,21.07 27.42,43.83 53.11,68.73 13.84,12.94 60.04,47.42 138.11,102.98 92.4,66.1 155.89,124.77 190.22,176.02 34.34,51.49 51.64,103.22 51.64,155.19 0,74.72 -29.4,139.87 -87.96,194.95 -58.79,55.32 -130.2,82.85 -214.18,82.85 -64.73,0 -123.53,-16.76 -176.15,-50.29 -52.62,-33.53 -101.28,-89.81 -145.76,-168.6z"/>
   <path class="fil4" d="M140.69 973.42l142.31 0c79.26,0 133.05,3.3 161.18,9.76 42.53,9.59 76.94,30.28 103.42,62.22 26.65,31.77 39.88,70.99 39.88,117.49 0,38.73 -9.09,72.81 -27.46,102.1 -18.21,29.46 -44.36,51.63 -78.45,66.69 -33.92,15.05 -80.91,22.67 -140.82,22.99l256.66 331.62 -87.54 0 -256.65 -331.62 -41.04 0 0 331.62 -71.48 0 0 -712.88zm71.48 69.5l0 242.25 123.12 1c47.82,0 83.06,-4.47 105.91,-13.57 22.84,-9.09 40.71,-23.49 53.61,-43.35 12.75,-19.86 19.19,-42.03 19.19,-66.68 0,-23.83 -6.45,-45.67 -19.52,-65.2 -12.92,-19.52 -29.96,-33.42 -51.13,-41.86 -21.01,-8.45 -56.1,-12.58 -105.08,-12.58l-126.1 0z"/>
   <polygon class="fil4" points="669.06,973.42 1077.13,973.42 1077.13,1042.92 740.54,1042.92 740.54,1266.31 1074.15,1266.31 1074.15,1335.81 740.54,1335.81 740.54,1616.8 1074.15,1616.8 1074.15,1686.3 669.06,1686.3 "/>
  </g>
 </g>
</svg>
